<svg width="15" height="16" viewBox="0 0 15 16" fill="none" xmlns="http://www.w3.org/2000/svg">
<path fill-rule="evenodd" clip-rule="evenodd" d="M10.7287 0.614895L10.7295 1.21459C12.9332 1.38731 14.3889 2.88895 14.3913 5.1918L14.4 11.9324C14.4031 14.4432 12.8258 15.988 10.2974 15.992L4.1215 16C1.60895 16.0032 0.0118532 14.4216 0.0086938 11.9036L5.31979e-06 5.24217C-0.00315413 2.92414 1.40122 1.42649 3.60493 1.22419L3.60414 0.62449C3.60335 0.272667 3.86401 0.0079996 4.21155 0.0079996C4.55909 0.00720001 4.81974 0.271068 4.82053 0.622891L4.82132 1.18261L9.5131 1.17621L9.51231 0.616494C9.51152 0.264671 9.77217 0.000803215 10.1197 1.80419e-06C10.4594 -0.000795982 10.7279 0.263072 10.7287 0.614895ZM1.2172 5.48908L13.1757 5.47308V5.19322C13.1417 3.47409 12.2792 2.57214 10.7311 2.43781L10.7319 3.0535C10.7319 3.39733 10.4641 3.66999 10.1245 3.66999C9.77693 3.67079 9.51549 3.39892 9.51549 3.0551L9.5147 2.40742L4.82292 2.41382L4.82371 3.06069C4.82371 3.40532 4.56384 3.67718 4.2163 3.67718C3.86877 3.67798 3.60732 3.40692 3.60732 3.06229L3.60653 2.4466C2.0663 2.60092 1.21404 3.50607 1.21641 5.2404L1.2172 5.48908ZM9.79199 9.12342V9.13222C9.79989 9.50003 10.1 9.77909 10.4642 9.7711C10.8196 9.7623 11.1032 9.45765 11.0953 9.08984C11.0787 8.73802 10.7935 8.45096 10.4389 8.45176C10.0756 8.45976 9.7912 8.75561 9.79199 9.12342ZM10.4438 12.7138C10.0805 12.7058 9.78747 12.4028 9.78668 12.035C9.77878 11.6672 10.0702 11.3625 10.4336 11.3537H10.4415C10.8127 11.3537 11.1136 11.6568 11.1136 12.0326C11.1144 12.4084 10.8143 12.713 10.4438 12.7138ZM6.53731 9.13631C6.5531 9.50412 6.85404 9.79118 7.21738 9.77519C7.57281 9.7584 7.85638 9.45455 7.84058 9.08673C7.83189 8.72691 7.53964 8.44705 7.1842 8.44785C6.82087 8.46385 6.53652 8.76849 6.53731 9.13631ZM7.2205 12.6775C6.85716 12.6935 6.55702 12.4065 6.54043 12.0386C6.54043 11.6708 6.82399 11.367 7.18733 11.3502C7.54276 11.3494 7.8358 11.6293 7.8437 11.9883C7.86029 12.3569 7.57594 12.6607 7.2205 12.6775ZM3.2834 9.16404C3.2992 9.53186 3.60014 9.81971 3.96347 9.80292C4.31891 9.78693 4.60247 9.48228 4.58588 9.11447C4.57799 8.75465 4.28574 8.47479 3.92951 8.47559C3.56617 8.49158 3.28261 8.79623 3.2834 9.16404ZM3.96679 12.6816C3.60345 12.6984 3.3033 12.4106 3.28672 12.0427C3.28593 11.6749 3.57028 11.3703 3.93361 11.3543C4.28905 11.3535 4.58209 11.6334 4.58999 11.9932C4.60658 12.361 4.32302 12.6656 3.96679 12.6816Z" fill="#FF69B4"/>
</svg>
