<svg width="40" height="40" viewBox="0 0 40 40" fill="none" xmlns="http://www.w3.org/2000/svg">
<circle opacity="0.1" cx="20" cy="20" r="20" fill="#FF69B4"/>
<path fill-rule="evenodd" clip-rule="evenodd" d="M26.101 15.2701C26.3733 15.2701 26.6 15.4962 26.6 15.7839V16.0499C26.6 16.3306 26.3733 16.5637 26.101 16.5637H14.4997C14.2267 16.5637 14 16.3306 14 16.0499V15.7839C14 15.4962 14.2267 15.2701 14.4997 15.2701H16.5407C16.9553 15.2701 17.3161 14.9754 17.4094 14.5596L17.5163 14.0822C17.6824 13.4319 18.229 13 18.8547 13H21.7453C22.3641 13 22.9169 13.4319 23.0769 14.0479L23.1913 14.5589C23.2839 14.9754 23.6447 15.2701 24.06 15.2701H26.101ZM25.0641 24.9937C25.2772 23.0079 25.6502 18.2899 25.6502 18.2423C25.6639 18.0981 25.6169 17.9616 25.5236 17.8517C25.4235 17.7488 25.2969 17.6879 25.1574 17.6879H15.448C15.3077 17.6879 15.1743 17.7488 15.0817 17.8517C14.9878 17.9616 14.9415 18.0981 14.9483 18.2423C14.9495 18.2511 14.9629 18.4172 14.9853 18.6951C15.0847 19.9293 15.3616 23.367 15.5406 24.9937C15.6672 26.1921 16.4535 26.9453 17.5925 26.9726C18.4713 26.9929 19.3768 26.9999 20.3027 26.9999C21.1748 26.9999 22.0605 26.9929 22.9666 26.9726C24.145 26.9523 24.9307 26.2124 25.0641 24.9937Z" fill="#FF69B4"/>
</svg>
