<svg width="64" height="64" viewBox="0 0 64 64" fill="none" xmlns="http://www.w3.org/2000/svg">
<path opacity="0.1" d="M0.466431 31.7934C0.466431 14.2912 14.6548 0.102875 32.157 0.102875C49.6592 0.102875 63.8475 14.2912 63.8475 31.7934C63.8475 49.2956 49.6592 63.484 32.157 63.484C14.6548 63.484 0.466431 49.2956 0.466431 31.7934Z" fill="#99B2C6"/>
<path fill-rule="evenodd" clip-rule="evenodd" d="M35.7848 21.7569C36.4499 21.7569 37.1141 21.8509 37.7455 22.0633C41.6365 23.3309 43.0385 27.6091 41.8673 31.3486C41.2032 33.2595 40.1174 35.0036 38.6953 36.4286C36.6597 38.404 34.4259 40.1575 32.0214 41.6681L31.7578 41.8276L31.4837 41.6575C29.0707 40.1575 26.8243 38.404 24.7697 36.418C23.3571 34.993 22.2703 33.2595 21.5956 31.3486C20.4044 27.6091 21.8064 23.3309 25.7395 22.0411C26.0453 21.9354 26.3605 21.8615 26.6767 21.8203H26.8032C27.0994 21.777 27.3935 21.7569 27.6887 21.7569H27.8047C28.4688 21.777 29.1118 21.8932 29.7349 22.1055H29.7971C29.8392 22.1256 29.8708 22.1478 29.8919 22.1678C30.1249 22.2428 30.3452 22.3273 30.5561 22.4435L30.9566 22.6231C31.0534 22.6749 31.1621 22.7539 31.256 22.8222C31.3155 22.8655 31.3691 22.9045 31.4099 22.9295C31.4271 22.9396 31.4446 22.9499 31.4623 22.9602C31.5526 23.013 31.6468 23.0681 31.7262 23.1291C32.8974 22.2323 34.3195 21.7463 35.7848 21.7569ZM38.5886 29.3621C39.0208 29.3505 39.3898 29.003 39.4214 28.5582V28.4325C39.453 26.9526 38.558 25.6121 37.1971 25.0945C36.7649 24.9455 36.2905 25.179 36.1324 25.6226C35.9848 26.0663 36.2167 26.5522 36.6595 26.7096C37.3352 26.9632 37.7874 27.6297 37.7874 28.3681V28.4008C37.7674 28.6427 37.8402 28.8762 37.9877 29.0558C38.1353 29.2354 38.3567 29.3399 38.5886 29.3621Z" fill="#3A36DB"/>
</svg>
