<svg width="64" height="64" viewBox="0 0 64 64" fill="none" xmlns="http://www.w3.org/2000/svg">
<rect opacity="0.1" x="0.0668945" y="0.102875" width="63.3811" height="63.3811" rx="31.6905" fill="#FF69B4"/>
<path fill-rule="evenodd" clip-rule="evenodd" d="M35.1866 26.5133C35.2201 26.4385 35.2358 26.3569 35.2325 26.2749H35.26C35.1421 23.4561 32.8195 21.2316 29.9944 21.2316C27.1692 21.2316 24.8466 23.4561 24.7287 26.2749C24.7148 26.3538 24.7148 26.4345 24.7287 26.5133H26.2804C26.2943 26.4345 26.2943 26.3538 26.2804 26.2749C26.2804 24.2494 27.9247 22.6073 29.953 22.6073C31.9814 22.6073 33.6257 24.2494 33.6257 26.2749C33.6267 26.3565 33.6423 26.4372 33.6716 26.5133H35.1866ZM38.5747 29.8092L39.3853 36.353C39.9815 40.6194 37.5872 42.3586 34.3729 42.3586H25.6339C22.4103 42.3586 19.9414 41.1575 20.6122 36.353L21.432 29.8092C21.8513 27.407 23.2954 26.5133 24.6463 26.5133H35.3512C36.6834 26.5133 38.0809 27.4742 38.5747 29.8092ZM26.9283 31.9521C26.4138 31.9521 25.9966 31.5219 25.9966 30.9912C25.9966 30.4605 26.4138 30.0303 26.9283 30.0303C27.4429 30.0303 27.86 30.4605 27.86 30.9912C27.86 31.5219 27.4429 31.9521 26.9283 31.9521ZM32.0993 30.9912C32.0993 31.5219 32.5164 31.9521 33.031 31.9521C33.5455 31.9521 33.9627 31.5219 33.9627 30.9912C33.9627 30.4605 33.5455 30.0303 33.031 30.0303C32.5164 30.0303 32.0993 30.4605 32.0993 30.9912Z" fill="#FF69B4"/>
</svg>
