<svg width="65" height="64" viewBox="0 0 65 64" fill="none" xmlns="http://www.w3.org/2000/svg">
<rect opacity="0.2" x="0.709717" y="0.102844" width="63.3811" height="63.3811" rx="31.6905" fill="#03A89E"/>
<path fill-rule="evenodd" clip-rule="evenodd" d="M34.6375 24.484C34.9697 24.4885 35.3026 24.4931 35.6367 24.4965C39.2265 24.4965 41.8438 27.0611 41.8438 30.6026V35.1516C41.8438 38.6932 39.2265 41.2577 35.6367 41.2577C34.1987 41.2882 32.7608 41.2984 31.3124 41.2984C29.8641 41.2984 28.4054 41.2882 26.9675 41.2577C23.3777 41.2577 20.7604 38.6932 20.7604 35.1516V30.6026C20.7604 27.0611 23.3777 24.4965 26.9778 24.4965C28.333 24.4762 29.7193 24.4558 31.1262 24.4558V24.2828C31.1262 23.5806 30.5365 23.0107 29.8331 23.0107H28.8089C27.6399 23.0107 26.6881 22.0744 26.6881 20.9346C26.6881 20.5174 27.0399 20.1714 27.464 20.1714C27.8985 20.1714 28.2399 20.5174 28.2399 20.9346C28.2399 21.24 28.4986 21.4842 28.8089 21.4842H29.8331C31.3952 21.4944 32.6676 22.7461 32.678 24.2726V24.466C33.3301 24.466 33.9823 24.475 34.6375 24.484ZM30.0915 33.6343H29.0052V34.7131C29.0052 35.1303 28.6535 35.4763 28.2294 35.4763C27.7949 35.4763 27.4535 35.1303 27.4535 34.7131V33.6343H26.3569C25.9327 33.6343 25.581 33.2985 25.581 32.8711C25.581 32.4538 25.9327 32.1078 26.3569 32.1078H27.4535V31.0392C27.4535 30.622 27.7949 30.276 28.2294 30.276C28.6535 30.276 29.0052 30.622 29.0052 31.0392V32.1078H30.0915C30.5156 32.1078 30.8674 32.4538 30.8674 32.8711C30.8674 33.2985 30.5156 33.6343 30.0915 33.6343ZM34.4886 31.9139H34.5921C35.0162 31.9139 35.368 31.5781 35.368 31.1507C35.368 30.7334 35.0162 30.3874 34.5921 30.3874H34.4886C34.0541 30.3874 33.7127 30.7334 33.7127 31.1507C33.7127 31.5781 34.0541 31.9139 34.4886 31.9139ZM36.2572 35.4151H36.3607C36.7848 35.4151 37.1366 35.0793 37.1366 34.6519C37.1366 34.2346 36.7848 33.8886 36.3607 33.8886H36.2572C35.8217 33.8886 35.4813 34.2346 35.4813 34.6519C35.4813 35.0793 35.8217 35.4151 36.2572 35.4151Z" fill="#03A89E"/>
</svg>
